<svg width="24" height="25" viewBox="0 0 24 25" fill="none" xmlns="http://www.w3.org/2000/svg">
<path d="M16 8.823C17.5913 8.823 19.1174 9.45514 20.2426 10.5804C21.3679 11.7056 22 13.2317 22 14.823V21.823H18V14.823C18 14.2926 17.7893 13.7839 17.4142 13.4088C17.0391 13.0337 16.5304 12.823 16 12.823C15.4696 12.823 14.9609 13.0337 14.5858 13.4088C14.2107 13.7839 14 14.2926 14 14.823V21.823H10V14.823C10 13.2317 10.6321 11.7056 11.7574 10.5804C12.8826 9.45514 14.4087 8.823 16 8.823Z" stroke="#0D0D0D" stroke-width="2" stroke-linecap="round" stroke-linejoin="round"/>
<path d="M6 9.823H2V21.823H6V9.823Z" stroke="#0D0D0D" stroke-width="2" stroke-linecap="round" stroke-linejoin="round"/>
<path d="M4 6.823C5.10457 6.823 6 5.92757 6 4.823C6 3.71843 5.10457 2.823 4 2.823C2.89543 2.823 2 3.71843 2 4.823C2 5.92757 2.89543 6.823 4 6.823Z" stroke="#0D0D0D" stroke-width="2" stroke-linecap="round" stroke-linejoin="round"/>
</svg>
