<svg width="240" height="33" viewBox="0 0 240 33" fill="none" xmlns="http://www.w3.org/2000/svg">
<path d="M4.5283 27.5747C4.5283 27.5747 11.4844 29.3241 16 29.3241C20.5156 29.3241 27.4717 27.5747 27.4717 27.5747V31.0736C27.4717 31.0736 20.5156 32.823 16 32.823C11.4844 32.823 4.5283 31.0736 4.5283 31.0736V27.5747Z" fill="#394DBF"/>
<path d="M4.5283 22.4722C4.5283 22.4722 11.4844 20.7228 16 20.7228C20.5156 20.7228 27.4717 22.4722 27.4717 22.4722V28.3036C27.4717 28.3036 20.5156 26.5542 16 26.5542C11.4844 26.5542 4.5283 28.3036 4.5283 28.3036V22.4722Z" fill="#394DBF"/>
<path d="M2.41509 9.27858L4.5283 19.7752C4.5283 19.7752 11.4844 18.0257 16 18.0257C20.5156 18.0257 27.4717 19.7752 27.4717 19.7752L29.5849 9.27858C29.5849 9.27858 28.2736 13.5783 25.0566 14.5269C19.7761 16.0839 16 6.65443 16 6.65443C16 6.65443 12.2239 16.0839 6.9434 14.5269C3.7264 13.5783 2.41509 9.27858 2.41509 9.27858Z" fill="#394DBF"/>
<path d="M32 6.65443C32 8.26474 30.9187 9.57015 29.5849 9.57015C28.2511 9.57015 27.1698 8.26474 27.1698 6.65443C27.1698 5.04413 28.2511 3.73872 29.5849 3.73872C30.9187 3.73872 32 5.04413 32 6.65443Z" fill="#394DBF"/>
<path d="M4.83019 6.65443C4.83019 8.26474 3.74891 9.57015 2.41509 9.57015C1.08127 9.57015 0 8.26474 0 6.65443C0 5.04413 1.08127 3.73872 2.41509 3.73872C3.74891 3.73872 4.83019 5.04413 4.83019 6.65443Z" fill="#394DBF"/>
<path d="M18.4151 3.73872C18.4151 5.34902 17.3338 6.65443 16 6.65443C14.6662 6.65443 13.5849 5.34902 13.5849 3.73872C13.5849 2.12841 14.6662 0.822998 16 0.822998C17.3338 0.822998 18.4151 2.12841 18.4151 3.73872Z" fill="#394DBF"/>
<path d="M64.4678 9.1037V24.5423H60.9825V15.4546L61.1345 12.8698L60.538 15.8288L57.9415 23.3025H54.5146L51.9298 15.8288L51.345 12.8698L51.4971 15.4546V24.5423H48V9.1037H52.9123L56.0234 19.4078L56.2339 20.6359L56.4444 19.4078L59.5556 9.1037H64.4678Z" fill="#394DBF"/>
<path d="M67.2577 9.1037H77.1173V12.168H70.7431V15.3142H77.0588V18.285H70.7431V21.478H77.1173V24.5423H67.2577V9.1037Z" fill="#394DBF"/>
<path d="M79.6829 9.1037H85.9753C86.872 9.1037 87.6712 9.29083 88.373 9.6651C89.0747 10.0394 89.6283 10.5813 90.0338 11.2908C90.4471 11.9926 90.6537 12.8308 90.6537 13.8055C90.6537 14.7801 90.4782 15.5793 90.1274 16.2031C89.7843 16.8191 89.371 17.283 88.8876 17.5949C88.4042 17.899 87.9558 18.0823 87.5426 18.1446L91.297 24.5423H87.3671L84.0221 18.4136H83.18V24.5423H79.6829V9.1037ZM83.18 15.9926H84.7239C85.3476 15.9926 85.8935 15.8405 86.3613 15.5364C86.8291 15.2324 87.063 14.6943 87.063 13.9224C87.063 13.1505 86.833 12.6164 86.373 12.3201C85.9129 12.016 85.371 11.8639 84.7473 11.8639H83.18V15.9926Z" fill="#394DBF"/>
<path d="M100.949 21.361C101.667 21.361 102.318 21.2557 102.903 21.0452C103.495 20.8347 103.936 20.6281 104.224 20.4253L105.721 23.3961C105.355 23.708 104.727 24.0238 103.838 24.3435C102.957 24.6632 101.908 24.823 100.692 24.823C99.5537 24.823 98.4854 24.6242 97.4874 24.2265C96.4893 23.8288 95.6082 23.2713 94.8441 22.554C94.0878 21.8288 93.4913 20.9828 93.0546 20.016C92.6258 19.0413 92.4114 17.9848 92.4114 16.8464C92.4114 15.708 92.6258 14.6515 93.0546 13.6768C93.4835 12.6943 94.0761 11.8405 94.8324 11.1154C95.5965 10.3903 96.4776 9.82885 97.4757 9.43119C98.4815 9.02573 99.5537 8.823 100.692 8.823C101.908 8.823 102.957 8.98284 103.838 9.30253C104.727 9.62222 105.355 9.93801 105.721 10.2499L104.224 13.2207C103.936 13.0101 103.495 12.8035 102.903 12.6008C102.318 12.3902 101.667 12.285 100.949 12.285C100.154 12.285 99.4601 12.4097 98.8675 12.6593C98.2749 12.901 97.7798 13.2363 97.3821 13.6651C96.9845 14.094 96.6882 14.5774 96.4932 15.1154C96.2983 15.6534 96.2008 16.2187 96.2008 16.8113C96.2008 17.4117 96.2983 17.9848 96.4932 18.5306C96.6882 19.0686 96.9845 19.552 97.3821 19.9809C97.7798 20.4097 98.2749 20.7489 98.8675 20.9984C99.4601 21.2402 100.154 21.361 100.949 21.361Z" fill="#394DBF"/>
<path d="M116.775 9.1037H120.272V18.5891C120.272 19.86 120.022 20.9634 119.523 21.899C119.024 22.8269 118.311 23.5481 117.383 24.0628C116.455 24.5696 115.348 24.823 114.061 24.823C112.767 24.823 111.652 24.5696 110.716 24.0628C109.781 23.5481 109.063 22.8269 108.564 21.899C108.073 20.9634 107.827 19.86 107.827 18.5891V9.1037H111.313V18.4019C111.313 19.1037 111.422 19.6963 111.64 20.1797C111.866 20.6632 112.186 21.0296 112.599 21.2791C113.012 21.5209 113.5 21.6417 114.061 21.6417C114.615 21.6417 115.094 21.5209 115.5 21.2791C115.905 21.0296 116.217 20.6632 116.435 20.1797C116.662 19.6963 116.775 19.1037 116.775 18.4019V9.1037Z" fill="#394DBF"/>
<path d="M122.675 9.1037H128.967C129.864 9.1037 130.663 9.29083 131.365 9.6651C132.066 10.0394 132.62 10.5813 133.025 11.2908C133.439 11.9926 133.645 12.8308 133.645 13.8055C133.645 14.7801 133.47 15.5793 133.119 16.2031C132.776 16.8191 132.363 17.283 131.879 17.5949C131.396 17.899 130.947 18.0823 130.534 18.1446L134.289 24.5423H130.359L127.014 18.4136H126.172V24.5423H122.675V9.1037ZM126.172 15.9926H127.715C128.339 15.9926 128.885 15.8405 129.353 15.5364C129.821 15.2324 130.055 14.6943 130.055 13.9224C130.055 13.1505 129.825 12.6164 129.365 12.3201C128.905 12.016 128.363 11.8639 127.739 11.8639H126.172V15.9926Z" fill="#394DBF"/>
<path d="M138.839 18.9867L133.517 9.1037H137.763L140.582 14.9867L143.412 9.1037H147.634L142.336 18.9867V24.5423H138.839V18.9867Z" fill="#394DBF"/>
<path d="M155.266 9.1037H158.763V24.5423H155.266V9.1037Z" fill="#394DBF"/>
<path d="M164.704 12.3084L164.962 12.3552V24.5423H161.465V9.1037H166.236L172.494 21.2674L172.236 21.3142V9.1037H175.734V24.5423H170.938L164.704 12.3084Z" fill="#394DBF"/>
<path d="M186.544 21.361C187.262 21.361 187.913 21.2557 188.497 21.0452C189.09 20.8347 189.531 20.6281 189.819 20.4253L191.316 23.3961C190.95 23.708 190.322 24.0238 189.433 24.3435C188.552 24.6632 187.503 24.823 186.287 24.823C185.148 24.823 184.08 24.6242 183.082 24.2265C182.084 23.8288 181.203 23.2713 180.439 22.554C179.683 21.8288 179.086 20.9828 178.649 20.016C178.221 19.0413 178.006 17.9848 178.006 16.8464C178.006 15.708 178.221 14.6515 178.649 13.6768C179.078 12.6943 179.671 11.8405 180.427 11.1154C181.191 10.3903 182.072 9.82885 183.071 9.43119C184.076 9.02573 185.148 8.823 186.287 8.823C187.503 8.823 188.552 8.98284 189.433 9.30253C190.322 9.62222 190.95 9.93801 191.316 10.2499L189.819 13.2207C189.531 13.0101 189.09 12.8035 188.497 12.6008C187.913 12.3902 187.262 12.285 186.544 12.285C185.749 12.285 185.055 12.4097 184.462 12.6593C183.87 12.901 183.375 13.2363 182.977 13.6651C182.579 14.094 182.283 14.5774 182.088 15.1154C181.893 15.6534 181.796 16.2187 181.796 16.8113C181.796 17.4117 181.893 17.9848 182.088 18.5306C182.283 19.0686 182.579 19.552 182.977 19.9809C183.375 20.4097 183.87 20.7489 184.462 20.9984C185.055 21.2402 185.749 21.361 186.544 21.361Z" fill="#394DBF"/>
<path d="M205.262 8.823C206.221 8.823 207.059 8.92826 207.776 9.13879C208.494 9.34931 209.071 9.57154 209.507 9.80545C209.944 10.0394 210.209 10.1953 210.303 10.2733L208.619 13.092C208.494 12.9984 208.279 12.862 207.975 12.6826C207.679 12.5033 207.324 12.3435 206.911 12.2031C206.506 12.0628 206.081 11.9926 205.636 11.9926C205.036 11.9926 204.548 12.1018 204.174 12.3201C203.808 12.5306 203.624 12.8464 203.624 13.2674C203.624 13.5559 203.722 13.8172 203.917 14.0511C204.12 14.2772 204.424 14.4955 204.829 14.706C205.242 14.9088 205.765 15.131 206.396 15.3727C206.973 15.5832 207.515 15.8327 208.022 16.1212C208.529 16.4097 208.973 16.7528 209.355 17.1505C209.745 17.5403 210.053 17.9926 210.279 18.5072C210.506 19.0218 210.619 19.6066 210.619 20.2616C210.619 21.0413 210.459 21.7197 210.139 22.2967C209.819 22.8659 209.383 23.3376 208.829 23.7119C208.283 24.0862 207.66 24.363 206.958 24.5423C206.264 24.7294 205.543 24.823 204.794 24.823C203.734 24.823 202.782 24.7021 201.94 24.4604C201.106 24.2187 200.431 23.9575 199.917 23.6768C199.402 23.3961 199.094 23.209 198.993 23.1154L200.736 20.1797C200.829 20.2499 201.008 20.363 201.274 20.5189C201.546 20.6749 201.878 20.8386 202.268 21.0101C202.658 21.1739 203.071 21.3142 203.507 21.4312C203.952 21.5481 204.389 21.6066 204.817 21.6066C205.535 21.6066 206.073 21.4702 206.431 21.1973C206.79 20.9166 206.969 20.5501 206.969 20.0979C206.969 19.7626 206.856 19.4624 206.63 19.1973C206.404 18.9322 206.065 18.6826 205.613 18.4487C205.16 18.207 204.595 17.9536 203.917 17.6885C203.238 17.4156 202.603 17.0842 202.01 16.6943C201.426 16.3045 200.95 15.8172 200.583 15.2324C200.217 14.6476 200.034 13.9224 200.034 13.0569C200.034 12.1914 200.275 11.4429 200.759 10.8113C201.25 10.1719 201.893 9.6807 202.689 9.33762C203.492 8.99454 204.35 8.823 205.262 8.823Z" fill="#394DBF"/>
<path d="M217.731 9.1037H221.205L227.299 24.5423H223.568L222.445 21.4429H216.503L215.369 24.5423H211.626L217.731 9.1037ZM217.673 18.3786H221.287L219.497 13.3142H219.462L217.673 18.3786Z" fill="#394DBF"/>
<path d="M234.159 8.823C235.118 8.823 235.956 8.92826 236.674 9.13879C237.391 9.34931 237.968 9.57154 238.405 9.80545C238.841 10.0394 239.106 10.1953 239.2 10.2733L237.516 13.092C237.391 12.9984 237.177 12.862 236.872 12.6826C236.576 12.5033 236.221 12.3435 235.808 12.2031C235.403 12.0628 234.978 11.9926 234.533 11.9926C233.933 11.9926 233.446 12.1018 233.071 12.3201C232.705 12.5306 232.522 12.8464 232.522 13.2674C232.522 13.5559 232.619 13.8172 232.814 14.0511C233.017 14.2772 233.321 14.4955 233.726 14.706C234.139 14.9088 234.662 15.131 235.293 15.3727C235.87 15.5832 236.412 15.8327 236.919 16.1212C237.426 16.4097 237.87 16.7528 238.253 17.1505C238.642 17.5403 238.95 17.9926 239.177 18.5072C239.403 19.0218 239.516 19.6066 239.516 20.2616C239.516 21.0413 239.356 21.7197 239.036 22.2967C238.716 22.8659 238.28 23.3376 237.726 23.7119C237.18 24.0862 236.557 24.363 235.855 24.5423C235.161 24.7294 234.44 24.823 233.691 24.823C232.631 24.823 231.679 24.7021 230.837 24.4604C230.003 24.2187 229.329 23.9575 228.814 23.6768C228.299 23.3961 227.991 23.209 227.89 23.1154L229.633 20.1797C229.726 20.2499 229.906 20.363 230.171 20.5189C230.444 20.6749 230.775 20.8386 231.165 21.0101C231.555 21.1739 231.968 21.3142 232.405 21.4312C232.849 21.5481 233.286 21.6066 233.715 21.6066C234.432 21.6066 234.97 21.4702 235.329 21.1973C235.687 20.9166 235.867 20.5501 235.867 20.0979C235.867 19.7626 235.754 19.4624 235.527 19.1973C235.301 18.9322 234.962 18.6826 234.51 18.4487C234.058 18.207 233.492 17.9536 232.814 17.6885C232.136 17.4156 231.5 17.0842 230.908 16.6943C230.323 16.3045 229.847 15.8172 229.481 15.2324C229.114 14.6476 228.931 13.9224 228.931 13.0569C228.931 12.1914 229.173 11.4429 229.656 10.8113C230.147 10.1719 230.791 9.6807 231.586 9.33762C232.389 8.99454 233.247 8.823 234.159 8.823Z" fill="#394DBF"/>
</svg>
