<svg width="24" height="25" viewBox="0 0 24 25" fill="none" xmlns="http://www.w3.org/2000/svg">
<path d="M21.9999 17.7431V20.7431C22.0011 21.0216 21.944 21.2973 21.8324 21.5524C21.7209 21.8076 21.5572 22.0367 21.352 22.225C21.1468 22.4132 20.9045 22.5566 20.6407 22.6458C20.3769 22.735 20.0973 22.7682 19.8199 22.7431C16.7428 22.4087 13.7869 21.3572 11.1899 19.6731C8.77376 18.1378 6.72527 16.0893 5.18993 13.6731C3.49991 11.0643 2.44818 8.09409 2.11993 5.00309C2.09494 4.72656 2.12781 4.44786 2.21643 4.18472C2.30506 3.92158 2.4475 3.67978 2.6347 3.47472C2.82189 3.26965 3.04974 3.1058 3.30372 2.99362C3.55771 2.88143 3.83227 2.82336 4.10993 2.82309H7.10993C7.59524 2.81832 8.06572 2.99017 8.43369 3.30663C8.80166 3.62308 9.04201 4.06254 9.10993 4.54309C9.23656 5.50316 9.47138 6.44582 9.80993 7.3531C9.94448 7.71102 9.9736 8.10001 9.89384 8.47398C9.81408 8.84794 9.6288 9.19121 9.35993 9.4631L8.08993 10.7331C9.51349 13.2366 11.5864 15.3095 14.0899 16.7331L15.3599 15.4631C15.6318 15.1942 15.9751 15.0089 16.3491 14.9292C16.723 14.8494 17.112 14.8786 17.4699 15.0131C18.3772 15.3516 19.3199 15.5865 20.2799 15.7131C20.7657 15.7816 21.2093 16.0263 21.5265 16.4006C21.8436 16.7749 22.0121 17.2527 21.9999 17.7431Z" stroke="#0D0D0D" stroke-width="2" stroke-linecap="round" stroke-linejoin="round"/>
</svg>
