<svg width="60" height="60" viewBox="0 0 60 60" fill="none" xmlns="http://www.w3.org/2000/svg">
<rect width="60" height="60" rx="14" fill="#394DBF" fill-opacity="0.05"/>
<path d="M39.3901 29.6C39.6648 29.3192 39.856 28.9676 39.9426 28.5844C40.0291 28.2013 40.0074 27.8016 39.8801 27.43C39.7605 27.0573 39.5387 26.7257 39.2399 26.4729C38.9412 26.2201 38.5774 26.0562 38.1901 26L33.9001 25.34C33.88 25.3342 33.8616 25.324 33.846 25.3102C33.8304 25.2963 33.8182 25.2792 33.8101 25.26L31.9301 21.26C31.7652 20.8855 31.495 20.5669 31.1523 20.3432C30.8096 20.1195 30.4093 20.0003 30.0001 20C29.5956 19.9983 29.1992 20.1135 28.8586 20.3317C28.518 20.5499 28.2476 20.8619 28.0801 21.23L26.2001 25.23C26.1898 25.2495 26.1756 25.2667 26.1584 25.2805C26.1412 25.2942 26.1213 25.3043 26.1001 25.31L21.8201 26C21.4322 26.0578 21.0679 26.2221 20.7678 26.4745C20.4676 26.727 20.2434 27.0577 20.1201 27.43C19.9974 27.8029 19.9791 28.2023 20.0672 28.5848C20.1554 28.9673 20.3466 29.3184 20.6201 29.6L23.7801 32.85C23.7892 32.8705 23.7939 32.8926 23.7939 32.915C23.7939 32.9374 23.7892 32.9596 23.7801 32.98L23.0401 37.52C22.9713 37.9154 23.0161 38.3222 23.1694 38.6931C23.3227 39.064 23.5781 39.3838 23.9059 39.6152C24.2337 39.8467 24.6205 39.9804 25.0213 40.0007C25.4222 40.021 25.8205 39.9271 26.1701 39.73L29.9001 37.66C29.9186 37.6504 29.9392 37.6453 29.9601 37.6453C29.9809 37.6453 30.0015 37.6504 30.0201 37.66L33.7501 39.73C34.1001 39.9229 34.4973 40.0134 34.8964 39.9912C35.2954 39.9691 35.6802 39.835 36.0067 39.6045C36.3331 39.374 36.5882 39.0563 36.7426 38.6877C36.8971 38.319 36.9447 37.9144 36.8801 37.52L36.1901 33C36.1795 32.9818 36.174 32.9611 36.174 32.94C36.174 32.9189 36.1795 32.8983 36.1901 32.88L39.3901 29.6Z" fill="#394DBF"/>
</svg>
