<svg width="32" height="32" viewBox="0 0 32 32" fill="none" xmlns="http://www.w3.org/2000/svg">
<path d="M4.5283 26.7517C4.5283 26.7517 11.4844 28.5011 16 28.5011C20.5156 28.5011 27.4717 26.7517 27.4717 26.7517V30.2506C27.4717 30.2506 20.5156 32 16 32C11.4844 32 4.5283 30.2506 4.5283 30.2506V26.7517Z" fill="#FAFAFA"/>
<path d="M4.5283 21.6492C4.5283 21.6492 11.4844 19.8998 16 19.8998C20.5156 19.8998 27.4717 21.6492 27.4717 21.6492V27.4806C27.4717 27.4806 20.5156 25.7312 16 25.7312C11.4844 25.7312 4.5283 27.4806 4.5283 27.4806V21.6492Z" fill="#FAFAFA"/>
<path d="M2.41509 8.45558L4.5283 18.9522C4.5283 18.9522 11.4844 17.2027 16 17.2027C20.5156 17.2027 27.4717 18.9522 27.4717 18.9522L29.5849 8.45558C29.5849 8.45558 28.2736 12.7553 25.0566 13.7039C19.7761 15.2609 16 5.83144 16 5.83144C16 5.83144 12.2239 15.2609 6.9434 13.7039C3.7264 12.7553 2.41509 8.45558 2.41509 8.45558Z" fill="#FAFAFA"/>
<path d="M32 5.83144C32 7.44174 30.9187 8.74715 29.5849 8.74715C28.2511 8.74715 27.1698 7.44174 27.1698 5.83144C27.1698 4.22113 28.2511 2.91572 29.5849 2.91572C30.9187 2.91572 32 4.22113 32 5.83144Z" fill="#FAFAFA"/>
<path d="M4.83019 5.83144C4.83019 7.44174 3.74891 8.74715 2.41509 8.74715C1.08127 8.74715 0 7.44174 0 5.83144C0 4.22113 1.08127 2.91572 2.41509 2.91572C3.74891 2.91572 4.83019 4.22113 4.83019 5.83144Z" fill="#FAFAFA"/>
<path d="M18.4151 2.91572C18.4151 4.52602 17.3338 5.83144 16 5.83144C14.6662 5.83144 13.5849 4.52602 13.5849 2.91572C13.5849 1.30541 14.6662 0 16 0C17.3338 0 18.4151 1.30541 18.4151 2.91572Z" fill="#FAFAFA"/>
</svg>
