<svg width="1216" height="418" viewBox="0 0 1216 418" fill="none" xmlns="http://www.w3.org/2000/svg">
<g filter="url(#filter0_d_133_4051)">
<rect x="65.3037" y="8" width="1085.39" height="351.823" rx="32" fill="#F2E49B"/>
</g>
<rect y="8" width="1216" height="351.823" rx="32" fill="#F2E49B"/>
<mask id="mask0_133_4051" style="mask-type:alpha" maskUnits="userSpaceOnUse" x="0" y="8" width="1216" height="352">
<path d="M0 40C0 22.3269 14.3269 8 32 8H1184C1201.67 8 1216 22.3269 1216 40V327.823C1216 345.496 1201.67 359.823 1184 359.823H32C14.3269 359.823 0 345.496 0 327.823V40Z" fill="#D3965D"/>
</mask>
<g mask="url(#mask0_133_4051)">
</g>
<mask id="mask1_133_4051" style="mask-type:alpha" maskUnits="userSpaceOnUse" x="0" y="8" width="1216" height="352">
<path d="M0 40C0 22.3269 14.3269 8 32 8H1184C1201.67 8 1216 22.3269 1216 40V327.823C1216 345.496 1201.67 359.823 1184 359.823H32C14.3269 359.823 0 345.496 0 327.823V40Z" fill="#D3965D"/>
</mask>
<g mask="url(#mask1_133_4051)">
<path d="M-62.8356 371.677L44.1832 408.98C57.9217 413.769 72.0974 408.977 82.1019 396.165C92.1065 383.353 95.8477 365.199 92.1088 347.605L62.9798 210.554C59.2384 192.944 48.7915 179.591 35.0307 174.831C21.3197 170.091 7.17134 174.892 -2.8109 187.675L-80.7006 287.423C-90.6829 300.207 -94.4316 318.326 -90.7301 335.884C-88.8693 344.712 -85.3228 352.472 -80.517 358.627C-75.7312 364.756 -69.6986 369.288 -62.8356 371.677Z" fill="#D99C52"/>
<path d="M-85.7847 376.864L21.234 414.167C34.9725 418.955 49.1482 414.164 59.1528 401.352C69.1573 388.54 72.8985 370.386 69.1597 352.792L40.0307 215.74C36.2893 198.13 25.8423 184.777 12.0816 180.018C-1.62944 175.277 -15.7778 180.078 -25.7601 192.862L-103.65 292.61C-113.632 305.393 -117.381 323.512 -113.679 341.071C-111.818 349.898 -108.272 357.659 -103.466 363.813C-98.6804 369.942 -92.6477 374.474 -85.7847 376.864Z" fill="#122173"/>
<path d="M1427.6 37.8575L1340.98 -156.037C1329.86 -180.928 1309.94 -195.788 1287.68 -195.788C1265.43 -195.788 1245.51 -180.928 1234.39 -156.037L1147.77 37.8576C1136.64 62.7692 1136.66 92.4971 1147.83 117.387C1158.96 142.185 1178.86 156.996 1201.07 156.996L1374.3 156.996C1396.51 156.996 1416.41 142.185 1427.54 117.387C1433.14 104.921 1435.93 91.2397 1435.93 77.5514C1435.93 63.92 1433.16 50.2885 1427.6 37.8575Z" fill="#D99C52"/>
<path d="M1457.62 64.7729L1371.01 -129.122C1359.89 -154.012 1339.96 -168.873 1317.71 -168.873C1295.46 -168.873 1275.53 -154.012 1264.41 -129.122L1177.79 64.773C1166.66 89.6846 1166.69 119.412 1177.85 144.303C1188.99 169.101 1208.89 183.911 1231.09 183.911L1404.33 183.911C1426.53 183.911 1446.43 169.101 1457.56 144.303C1463.16 131.836 1465.96 118.155 1465.96 104.467C1465.96 90.8354 1463.18 77.2039 1457.62 64.7729Z" fill="#122173"/>
<path d="M1180.06 311.089L1197.71 323.736C1199.97 325.36 1201.33 328.269 1201.33 331.518C1201.33 334.767 1199.97 337.676 1197.71 339.3L1180.06 351.948C1177.79 353.573 1175.08 353.57 1172.82 351.939C1170.56 350.313 1169.21 347.407 1169.21 344.166L1169.21 318.871C1169.21 315.629 1170.56 312.723 1172.82 311.097C1173.95 310.28 1175.2 309.872 1176.44 309.872C1177.68 309.872 1178.92 310.277 1180.06 311.089Z" fill="#394DBF"/>
<path d="M1152.45 311.089L1134.8 323.736C1132.53 325.36 1131.18 328.269 1131.18 331.518C1131.18 334.767 1132.53 337.676 1134.8 339.3L1152.45 351.948C1154.72 353.573 1157.42 353.57 1159.69 351.939C1161.95 350.313 1163.3 347.407 1163.3 344.166V318.871C1163.3 315.629 1161.95 312.723 1159.69 311.097C1158.55 310.28 1157.31 309.872 1156.06 309.872C1154.82 309.872 1153.58 310.277 1152.45 311.089Z" fill="#394DBF"/>
<path d="M1256.12 311.089L1273.77 323.736C1276.03 325.36 1277.39 328.269 1277.39 331.518C1277.39 334.767 1276.03 337.676 1273.77 339.3L1256.12 351.948C1253.85 353.573 1251.14 353.57 1248.88 351.939C1246.62 350.313 1245.27 347.407 1245.27 344.166V318.871C1245.27 315.629 1246.62 312.723 1248.88 311.097C1250.01 310.28 1251.26 309.872 1252.5 309.872C1253.75 309.872 1254.99 310.277 1256.12 311.089Z" fill="#394DBF"/>
<path d="M1228.51 311.089L1210.86 323.736C1208.59 325.36 1207.24 328.269 1207.24 331.518C1207.24 334.767 1208.59 337.676 1210.86 339.3L1228.51 351.948C1230.78 353.573 1233.49 353.57 1235.75 351.939C1238.01 350.313 1239.36 347.407 1239.36 344.166V318.871C1239.36 315.629 1238.01 312.723 1235.75 311.097C1234.62 310.28 1233.37 309.872 1232.12 309.872C1230.88 309.872 1229.64 310.277 1228.51 311.089Z" fill="#394DBF"/>
<path d="M1190.48 308.656L1172.83 296.008C1170.56 294.385 1169.21 291.475 1169.21 288.226C1169.21 284.977 1170.56 282.068 1172.83 280.444L1190.48 267.797C1192.75 266.172 1195.45 266.175 1197.72 267.806C1199.98 269.431 1201.33 272.337 1201.33 275.579V300.874C1201.33 304.116 1199.98 307.022 1197.72 308.647C1196.59 309.464 1195.34 309.872 1194.09 309.872C1192.85 309.872 1191.61 309.467 1190.48 308.656Z" fill="#394DBF"/>
<path d="M1190.48 394.157L1172.83 381.51C1170.56 379.886 1169.21 376.977 1169.21 373.728C1169.21 370.479 1170.56 367.569 1172.83 365.946L1190.48 353.298C1192.75 351.673 1195.45 351.676 1197.72 353.307C1199.98 354.932 1201.33 357.838 1201.33 361.08L1201.33 386.375C1201.33 389.617 1199.98 392.523 1197.72 394.148C1196.59 394.965 1195.34 395.373 1194.09 395.373C1192.85 395.373 1191.61 394.969 1190.48 394.157Z" fill="#394DBF"/>
<path d="M1218.09 308.656L1235.74 296.008C1238 294.385 1239.36 291.475 1239.36 288.226C1239.36 284.977 1238 282.068 1235.74 280.444L1218.09 267.797C1215.82 266.172 1213.11 266.175 1210.85 267.806C1208.59 269.431 1207.24 272.337 1207.24 275.579V300.874C1207.24 304.116 1208.59 307.022 1210.85 308.647C1211.98 309.464 1213.23 309.872 1214.47 309.872C1215.71 309.872 1216.96 309.467 1218.09 308.656Z" fill="#394DBF"/>
<path d="M1218.09 394.157L1235.74 381.51C1238 379.886 1239.36 376.977 1239.36 373.728C1239.36 370.479 1238 367.569 1235.74 365.946L1218.09 353.298C1215.82 351.673 1213.11 351.676 1210.85 353.307C1208.59 354.932 1207.24 357.838 1207.24 361.08V386.375C1207.24 389.617 1208.59 392.523 1210.85 394.148C1211.98 394.965 1213.23 395.373 1214.47 395.373C1215.71 395.373 1216.96 394.969 1218.09 394.157Z" fill="#394DBF"/>
<path d="M303.121 -280.473L255.946 -171.503C249.89 -157.515 239.038 -149.163 226.92 -149.163C214.801 -149.163 203.949 -157.515 197.893 -171.503L150.718 -280.473C144.656 -294.473 144.668 -311.18 150.751 -325.168C156.814 -339.105 167.653 -347.429 179.745 -347.429L274.094 -347.429C286.186 -347.429 297.025 -339.105 303.088 -325.168C306.136 -318.162 307.658 -310.473 307.658 -302.781C307.658 -295.12 306.148 -287.459 303.121 -280.473Z" fill="#394DBF"/>
<path d="M303.121 -450.907L255.946 -559.877C249.89 -573.865 239.038 -582.217 226.92 -582.217C214.801 -582.217 203.949 -573.865 197.893 -559.877L150.718 -450.907C144.656 -436.907 144.668 -420.2 150.751 -406.212C156.814 -392.275 167.653 -383.951 179.745 -383.951L274.094 -383.951C286.186 -383.951 297.025 -392.275 303.088 -406.212C306.136 -413.218 307.658 -420.907 307.658 -428.599C307.658 -436.26 306.148 -443.921 303.121 -450.907Z" fill="#394DBF"/>
<path d="M303.121 189.102L255.946 298.071C249.89 312.06 239.038 320.411 226.92 320.411C214.801 320.411 203.949 312.06 197.893 298.071L150.718 189.102C144.656 175.102 144.668 158.395 150.751 144.406C156.814 130.47 167.653 122.146 179.745 122.146L274.094 122.146C286.186 122.146 297.025 130.47 303.088 144.406C306.136 151.412 307.658 159.101 307.658 166.794C307.658 174.455 306.148 182.116 303.121 189.102Z" fill="#394DBF"/>
<path d="M303.121 18.6673L255.946 -90.3018C249.89 -104.29 239.038 -112.642 226.92 -112.642C214.801 -112.642 203.949 -104.29 197.893 -90.3018L150.718 18.6673C144.656 32.6678 144.668 49.3748 150.751 63.3633C156.814 77.2998 167.653 85.6233 179.745 85.6233L274.094 85.6233C286.186 85.6233 297.025 77.2998 303.088 63.3633C306.136 56.357 307.658 48.6683 307.658 40.9754C307.658 33.3145 306.148 25.6536 303.121 18.6673Z" fill="#394DBF"/>
<path d="M312.195 -216.119L359.37 -325.089C365.426 -339.077 376.278 -347.429 388.397 -347.429C400.515 -347.429 411.367 -339.077 417.423 -325.089L464.598 -216.119C470.66 -202.119 470.648 -185.412 464.565 -171.424C458.502 -157.487 447.663 -149.163 435.571 -149.163L341.222 -149.163C329.13 -149.163 318.291 -157.487 312.228 -171.424C309.181 -178.43 307.658 -186.119 307.658 -193.811C307.658 -201.472 309.169 -209.133 312.195 -216.119Z" fill="#394DBF"/>
<path d="M-6.72215 -216.119L40.4524 -325.089C46.5088 -339.077 57.3603 -347.429 69.479 -347.429C81.5977 -347.429 92.4493 -339.077 98.5056 -325.089L145.68 -216.119C151.743 -202.119 151.731 -185.412 145.647 -171.424C139.585 -157.487 128.745 -149.163 116.654 -149.163L22.3044 -149.163C10.2128 -149.163 -0.626754 -157.487 -6.6891 -171.424C-9.7368 -178.43 -11.2591 -186.119 -11.2591 -193.811C-11.2592 -201.472 -9.74882 -209.133 -6.72215 -216.119Z" fill="#394DBF"/>
<path d="M312.195 -45.6856L359.37 63.2835C365.426 77.272 376.278 85.6235 388.397 85.6235C400.515 85.6235 411.367 77.272 417.423 63.2835L464.598 -45.6856C470.66 -59.686 470.648 -76.393 464.565 -90.3815C458.502 -104.318 447.663 -112.642 435.571 -112.642L341.222 -112.642C329.13 -112.642 318.291 -104.318 312.228 -90.3815C309.181 -83.3753 307.658 -75.6865 307.658 -67.9937C307.658 -60.3328 309.169 -52.6718 312.195 -45.6856Z" fill="#394DBF"/>
<path d="M-6.72216 -45.6856L40.4524 63.2835C46.5088 77.272 57.3603 85.6235 69.479 85.6235C81.5977 85.6235 92.4493 77.272 98.5056 63.2835L145.68 -45.6856C151.743 -59.6861 151.731 -76.3931 145.647 -90.3815C139.585 -104.318 128.745 -112.642 116.654 -112.642L22.3044 -112.642C10.2128 -112.642 -0.626756 -104.318 -6.6891 -90.3815C-9.7368 -83.3753 -11.2591 -75.6865 -11.2591 -67.9936C-11.2591 -60.3327 -9.74883 -52.6718 -6.72216 -45.6856Z" fill="#394DBF"/>
</g>
<defs>
<filter id="filter0_d_133_4051" x="32.3037" y="0" width="1151.39" height="417.823" filterUnits="userSpaceOnUse" color-interpolation-filters="sRGB">
<feFlood flood-opacity="0" result="BackgroundImageFix"/>
<feColorMatrix in="SourceAlpha" type="matrix" values="0 0 0 0 0 0 0 0 0 0 0 0 0 0 0 0 0 0 127 0" result="hardAlpha"/>
<feOffset dy="25"/>
<feGaussianBlur stdDeviation="16.5"/>
<feColorMatrix type="matrix" values="0 0 0 0 0.423529 0 0 0 0 0.364706 0 0 0 0 0.827451 0 0 0 0.25 0"/>
<feBlend mode="normal" in2="BackgroundImageFix" result="effect1_dropShadow_133_4051"/>
<feBlend mode="normal" in="SourceGraphic" in2="effect1_dropShadow_133_4051" result="shape"/>
</filter>
</defs>
</svg>
