<svg width="342" height="352" viewBox="0 0 342 352" fill="none" xmlns="http://www.w3.org/2000/svg">
<g clip-path="url(#clip0_210_3807)">
<rect width="342" height="352" rx="16" fill="#F2E49B"/>
<path d="M317.876 332.508L335.527 345.156C337.793 346.779 339.146 349.689 339.146 352.938C339.146 356.187 337.793 359.096 335.527 360.72L317.876 373.367C315.609 374.993 312.902 374.989 310.636 373.358C308.379 371.733 307.031 368.827 307.031 365.585L307.031 340.29C307.031 337.049 308.379 334.142 310.636 332.517C311.771 331.7 313.017 331.292 314.263 331.292C315.504 331.292 316.745 331.697 317.876 332.508Z" fill="#394DBF"/>
<path d="M290.269 332.508L272.619 345.156C270.353 346.779 269 349.689 269 352.938C269 356.187 270.353 359.096 272.619 360.72L290.269 373.367C292.537 374.993 295.243 374.989 297.509 373.358C299.767 371.733 301.115 368.827 301.115 365.585V340.29C301.115 337.049 299.767 334.142 297.509 332.517C296.374 331.7 295.129 331.292 293.883 331.292C292.642 331.292 291.401 331.697 290.269 332.508Z" fill="#394DBF"/>
<path d="M393.938 332.508L411.589 345.156C413.854 346.779 415.207 349.689 415.207 352.938C415.207 356.187 413.854 359.096 411.589 360.72L393.938 373.367C391.67 374.993 388.964 374.989 386.698 373.358C384.441 371.733 383.092 368.827 383.092 365.585V340.29C383.092 337.049 384.441 334.142 386.698 332.517C387.833 331.7 389.078 331.292 390.324 331.292C391.565 331.292 392.806 331.697 393.938 332.508Z" fill="#394DBF"/>
<path d="M366.331 332.508L348.68 345.156C346.414 346.779 345.061 349.689 345.061 352.938C345.061 356.187 346.414 359.096 348.68 360.72L366.331 373.367C368.599 374.993 371.305 374.989 373.571 373.358C375.828 371.733 377.176 368.827 377.176 365.585V340.29C377.176 337.049 375.828 334.142 373.571 332.517C372.436 331.7 371.19 331.292 369.944 331.292C368.703 331.292 367.462 331.697 366.331 332.508Z" fill="#394DBF"/>
<path d="M328.3 330.076L310.649 317.428C308.384 315.804 307.031 312.895 307.031 309.646C307.031 306.397 308.384 303.488 310.649 301.864L328.3 289.217C330.568 287.591 333.274 287.595 335.54 289.226C337.797 290.851 339.146 293.757 339.146 296.999V322.294C339.146 325.535 337.797 328.441 335.54 330.067C334.405 330.884 333.16 331.292 331.914 331.292C330.673 331.292 329.432 330.887 328.3 330.076Z" fill="#394DBF"/>
<path d="M328.3 415.577L310.649 402.929C308.384 401.306 307.031 398.396 307.031 395.147C307.031 391.898 308.384 388.989 310.649 387.365L328.3 374.718C330.568 373.093 333.274 373.096 335.54 374.727C337.797 376.352 339.146 379.258 339.146 382.5L339.146 407.795C339.146 411.037 337.797 413.943 335.54 415.568C334.405 416.385 333.16 416.793 331.914 416.793C330.673 416.793 329.432 416.388 328.3 415.577Z" fill="#394DBF"/>
<path d="M355.907 330.076L373.558 317.428C375.824 315.804 377.176 312.895 377.176 309.646C377.176 306.397 375.824 303.488 373.558 301.864L355.907 289.217C353.639 287.591 350.933 287.595 348.667 289.226C346.41 290.851 345.061 293.757 345.061 296.999V322.294C345.061 325.535 346.41 328.441 348.667 330.067C349.802 330.884 351.047 331.292 352.294 331.292C353.534 331.292 354.775 330.887 355.907 330.076Z" fill="#394DBF"/>
<path d="M355.907 415.577L373.558 402.929C375.824 401.306 377.176 398.396 377.176 395.147C377.176 391.898 375.824 388.989 373.558 387.365L355.907 374.718C353.639 373.093 350.933 373.096 348.667 374.727C346.41 376.352 345.061 379.258 345.061 382.5V407.795C345.061 411.037 346.41 413.943 348.667 415.568C349.802 416.385 351.047 416.793 352.294 416.793C353.534 416.793 354.775 416.388 355.907 415.577Z" fill="#394DBF"/>
<path d="M-38.1237 22.5083L-20.4729 35.1558C-18.2071 36.7795 -16.8543 39.6888 -16.8543 42.9378C-16.8543 46.1868 -18.2071 49.0961 -20.4729 50.7198L-38.1237 63.3672C-40.3915 64.9925 -43.0977 64.9893 -45.3635 63.3584C-47.6209 61.7331 -48.9692 58.827 -48.9692 55.5852L-48.9692 30.2903C-48.9692 27.0486 -47.6209 24.1425 -45.3635 22.5172C-44.2286 21.7001 -42.9832 21.292 -41.7371 21.292C-40.4962 21.292 -39.2553 21.6969 -38.1237 22.5083Z" fill="#394DBF"/>
<path d="M-65.7306 22.5083L-83.3814 35.1558C-85.6472 36.7795 -87 39.6888 -87 42.9378C-87 46.1868 -85.6472 49.0961 -83.3814 50.7198L-65.7306 63.3672C-63.4628 64.9925 -60.7566 64.9893 -58.4908 63.3584C-56.2334 61.7331 -54.8851 58.827 -54.8851 55.5852V30.2903C-54.8851 27.0485 -56.2334 24.1425 -58.4908 22.5172C-59.6257 21.7001 -60.8711 21.2919 -62.1172 21.2919C-63.3581 21.2919 -64.599 21.6969 -65.7306 22.5083Z" fill="#394DBF"/>
<path d="M37.9378 22.5083L55.5885 35.1558C57.8544 36.7795 59.2072 39.6888 59.2072 42.9378C59.2072 46.1868 57.8544 49.0961 55.5885 50.7198L37.9378 63.3672C35.67 64.9925 32.9638 64.9893 30.698 63.3584C28.4405 61.7331 27.0923 58.827 27.0923 55.5852V30.2903C27.0923 27.0486 28.4405 24.1425 30.698 22.5172C31.8328 21.7001 33.0783 21.292 34.3243 21.292C35.5653 21.292 36.8062 21.6969 37.9378 22.5083Z" fill="#394DBF"/>
<path d="M10.3309 22.5083L-7.31992 35.1558C-9.58575 36.7795 -10.9385 39.6888 -10.9385 42.9378C-10.9385 46.1868 -9.58575 49.0961 -7.31992 50.7198L10.3309 63.3672C12.5986 64.9925 15.3048 64.9893 17.5707 63.3584C19.8281 61.7331 21.1763 58.827 21.1763 55.5852V30.2903C21.1763 27.0486 19.8281 24.1425 17.5707 22.5172C16.4358 21.7001 15.1904 21.292 13.9443 21.292C12.7034 21.292 11.4625 21.6969 10.3309 22.5083Z" fill="#394DBF"/>
<path d="M-27.6998 20.0756L-45.3506 7.42812C-47.6164 5.80443 -48.9692 2.89513 -48.9692 -0.353872C-48.9692 -3.60288 -47.6164 -6.51217 -45.3506 -8.13587L-27.6998 -20.7833C-25.432 -22.4086 -22.7258 -22.4054 -20.46 -20.7745C-18.2026 -19.1492 -16.8543 -16.2431 -16.8543 -13.0013V12.2936C-16.8543 15.5353 -18.2026 18.4414 -20.46 20.0667C-21.5949 20.8838 -22.8403 21.2919 -24.0864 21.2919C-25.3273 21.2919 -26.5682 20.887 -27.6998 20.0756Z" fill="#394DBF"/>
<path d="M-27.6998 105.577L-45.3506 92.9294C-47.6164 91.3057 -48.9692 88.3964 -48.9692 85.1473C-48.9692 81.8983 -47.6164 78.9891 -45.3506 77.3653L-27.6998 64.7179C-25.432 63.0926 -22.7258 63.0958 -20.46 64.7268C-18.2026 66.3521 -16.8543 69.2581 -16.8543 72.4999L-16.8543 97.7948C-16.8543 101.037 -18.2026 103.943 -20.46 105.568C-21.5949 106.385 -22.8403 106.793 -24.0864 106.793C-25.3273 106.793 -26.5682 106.388 -27.6998 105.577Z" fill="#394DBF"/>
<path d="M-0.0930252 20.0756L17.5577 7.42812C19.8236 5.80442 21.1764 2.89513 21.1764 -0.353876C21.1764 -3.60288 19.8236 -6.51218 17.5577 -8.13587L-0.0930252 -20.7833C-2.3608 -22.4086 -5.06699 -22.4054 -7.33283 -20.7745C-9.59026 -19.1492 -10.9385 -16.2431 -10.9385 -13.0013V12.2936C-10.9385 15.5353 -9.59026 18.4414 -7.33283 20.0667C-6.19798 20.8838 -4.95255 21.2919 -3.70647 21.2919C-2.46555 21.2919 -1.22465 20.887 -0.0930252 20.0756Z" fill="#394DBF"/>
<path d="M-0.0930176 105.577L17.5577 92.9293C19.8236 91.3056 21.1764 88.3964 21.1764 85.1473C21.1764 81.8983 19.8236 78.9891 17.5577 77.3653L-0.0930176 64.7179C-2.36079 63.0926 -5.06699 63.0958 -7.33283 64.7268C-9.59026 66.3521 -10.9385 69.2581 -10.9385 72.4999V97.7948C-10.9385 101.037 -9.59026 103.943 -7.33283 105.568C-6.19798 106.385 -4.95254 106.793 -3.70646 106.793C-2.46555 106.793 -1.22464 106.388 -0.0930176 105.577Z" fill="#394DBF"/>
<path d="M508.706 -35.1684L443.266 -181.915C434.865 -200.753 419.812 -212 403.001 -212C386.19 -212 371.137 -200.753 362.735 -181.915L297.295 -35.1684C288.886 -16.3143 288.902 6.18476 297.341 25.0227C305.751 43.7908 320.787 55 337.561 55L468.441 55C485.214 55 500.251 43.7908 508.661 25.0227C512.888 15.5876 515 5.23318 515 -5.12663C515 -15.4434 512.905 -25.7602 508.706 -35.1684Z" fill="#D99C52"/>
<path d="M532.678 -14.5061L466.946 -161.803C458.507 -180.711 443.387 -192 426.501 -192C409.615 -192 394.494 -180.711 386.056 -161.803L320.323 -14.5061C311.876 4.41857 311.893 27.0019 320.369 45.9104C328.817 64.7488 343.92 76 360.769 76L492.233 76C509.081 76 524.185 64.7488 532.632 45.9104C536.879 36.44 539 26.0468 539 15.6482C539 5.29275 536.896 -5.06267 532.678 -14.5061Z" fill="#122173"/>
<path d="M-71.4773 483.487L35.5414 520.791C49.2799 525.579 63.4556 520.788 73.4602 507.975C83.4647 495.163 87.2059 477.009 83.467 459.416L54.3381 322.364C50.5967 304.754 40.1497 291.401 26.3889 286.641C12.6779 281.901 -1.47045 286.702 -11.4527 299.485L-89.3424 399.233C-99.3247 412.017 -103.073 430.136 -99.3719 447.695C-97.5111 456.522 -93.9646 464.282 -89.1588 470.437C-84.373 476.566 -78.3403 481.098 -71.4773 483.487Z" fill="#D99C52"/>
<path d="M-94.4265 488.674L12.5922 525.977C26.3306 530.765 40.5064 525.974 50.5109 513.162C60.5155 500.35 64.2567 482.196 60.5178 464.602L31.3888 327.551C27.6474 309.941 17.2005 296.587 3.43971 291.828C-10.2713 287.088 -24.4197 291.888 -34.4019 304.672L-112.292 404.42C-122.274 417.204 -126.023 435.322 -122.321 452.881C-120.46 461.708 -116.914 469.469 -112.108 475.623C-107.322 481.752 -101.29 486.284 -94.4265 488.674Z" fill="#122173"/>
</g>
<defs>
<clipPath id="clip0_210_3807">
<rect width="342" height="352" rx="16" fill="white"/>
</clipPath>
</defs>
</svg>
