<svg width="240" height="33" viewBox="0 0 240 33" fill="none" xmlns="http://www.w3.org/2000/svg">
<path d="M4.5283 27.2517C4.5283 27.2517 11.4844 29.0011 16 29.0011C20.5156 29.0011 27.4717 27.2517 27.4717 27.2517V30.7506C27.4717 30.7506 20.5156 32.5 16 32.5C11.4844 32.5 4.5283 30.7506 4.5283 30.7506V27.2517Z" fill="#FAFAFA"/>
<path d="M4.5283 22.1492C4.5283 22.1492 11.4844 20.3998 16 20.3998C20.5156 20.3998 27.4717 22.1492 27.4717 22.1492V27.9806C27.4717 27.9806 20.5156 26.2312 16 26.2312C11.4844 26.2312 4.5283 27.9806 4.5283 27.9806V22.1492Z" fill="#FAFAFA"/>
<path d="M2.41509 8.95558L4.5283 19.4522C4.5283 19.4522 11.4844 17.7027 16 17.7027C20.5156 17.7027 27.4717 19.4522 27.4717 19.4522L29.5849 8.95558C29.5849 8.95558 28.2736 13.2553 25.0566 14.2039C19.7761 15.7609 16 6.33144 16 6.33144C16 6.33144 12.2239 15.7609 6.9434 14.2039C3.7264 13.2553 2.41509 8.95558 2.41509 8.95558Z" fill="#FAFAFA"/>
<path d="M32 6.33144C32 7.94174 30.9187 9.24715 29.5849 9.24715C28.2511 9.24715 27.1698 7.94174 27.1698 6.33144C27.1698 4.72113 28.2511 3.41572 29.5849 3.41572C30.9187 3.41572 32 4.72113 32 6.33144Z" fill="#FAFAFA"/>
<path d="M4.83019 6.33144C4.83019 7.94174 3.74891 9.24715 2.41509 9.24715C1.08127 9.24715 0 7.94174 0 6.33144C0 4.72113 1.08127 3.41572 2.41509 3.41572C3.74891 3.41572 4.83019 4.72113 4.83019 6.33144Z" fill="#FAFAFA"/>
<path d="M18.4151 3.41572C18.4151 5.02602 17.3338 6.33144 16 6.33144C14.6662 6.33144 13.5849 5.02602 13.5849 3.41572C13.5849 1.80541 14.6662 0.5 16 0.5C17.3338 0.5 18.4151 1.80541 18.4151 3.41572Z" fill="#FAFAFA"/>
<path d="M64.4678 8.7807V24.2193H60.9825V15.1316L61.1345 12.5468L60.538 15.5058L57.9415 22.9795H54.5146L51.9298 15.5058L51.345 12.5468L51.4971 15.1316V24.2193H48V8.7807H52.9123L56.0234 19.0848L56.2339 20.3129L56.4444 19.0848L59.5556 8.7807H64.4678Z" fill="#FAFAFA"/>
<path d="M67.2577 8.7807H77.1173V11.845H70.7431V14.9912H77.0588V17.962H70.7431V21.155H77.1173V24.2193H67.2577V8.7807Z" fill="#FAFAFA"/>
<path d="M79.6829 8.7807H85.9753C86.872 8.7807 87.6712 8.96784 88.373 9.34211C89.0747 9.71637 89.6283 10.2583 90.0338 10.9678C90.4471 11.6696 90.6537 12.5078 90.6537 13.4825C90.6537 14.4571 90.4782 15.2563 90.1274 15.8801C89.7843 16.4961 89.371 16.96 88.8876 17.2719C88.4042 17.576 87.9558 17.7593 87.5426 17.8216L91.297 24.2193H87.3671L84.0221 18.0906H83.18V24.2193H79.6829V8.7807ZM83.18 15.6696H84.7239C85.3476 15.6696 85.8935 15.5175 86.3613 15.2135C86.8291 14.9094 87.063 14.3713 87.063 13.5994C87.063 12.8275 86.833 12.2934 86.373 11.9971C85.9129 11.693 85.371 11.5409 84.7473 11.5409H83.18V15.6696Z" fill="#FAFAFA"/>
<path d="M100.949 21.038C101.667 21.038 102.318 20.9327 102.903 20.7222C103.495 20.5117 103.936 20.3051 104.224 20.1023L105.721 23.0731C105.355 23.385 104.727 23.7008 103.838 24.0205C102.957 24.3402 101.908 24.5 100.692 24.5C99.5537 24.5 98.4854 24.3012 97.4874 23.9035C96.4893 23.5058 95.6082 22.9483 94.8441 22.231C94.0878 21.5058 93.4913 20.6598 93.0546 19.693C92.6258 18.7183 92.4114 17.6618 92.4114 16.5234C92.4114 15.385 92.6258 14.3285 93.0546 13.3538C93.4835 12.3713 94.0761 11.5175 94.8324 10.7924C95.5965 10.0673 96.4776 9.50585 97.4757 9.10819C98.4815 8.70273 99.5537 8.5 100.692 8.5C101.908 8.5 102.957 8.65984 103.838 8.97953C104.727 9.29922 105.355 9.61501 105.721 9.9269L104.224 12.8977C103.936 12.6871 103.495 12.4805 102.903 12.2778C102.318 12.0673 101.667 11.962 100.949 11.962C100.154 11.962 99.4601 12.0867 98.8675 12.3363C98.2749 12.578 97.7798 12.9133 97.3821 13.3421C96.9845 13.771 96.6882 14.2544 96.4932 14.7924C96.2983 15.3304 96.2008 15.8957 96.2008 16.4883C96.2008 17.0887 96.2983 17.6618 96.4932 18.2076C96.6882 18.7456 96.9845 19.229 97.3821 19.6579C97.7798 20.0867 98.2749 20.4259 98.8675 20.6754C99.4601 20.9172 100.154 21.038 100.949 21.038Z" fill="#FAFAFA"/>
<path d="M116.775 8.7807H120.272V18.2661C120.272 19.537 120.022 20.6404 119.523 21.576C119.024 22.5039 118.311 23.2251 117.383 23.7398C116.455 24.2466 115.348 24.5 114.061 24.5C112.767 24.5 111.652 24.2466 110.716 23.7398C109.781 23.2251 109.063 22.5039 108.564 21.576C108.073 20.6404 107.827 19.537 107.827 18.2661V8.7807H111.313V18.0789C111.313 18.7807 111.422 19.3733 111.64 19.8567C111.866 20.3402 112.186 20.7066 112.599 20.9561C113.012 21.1979 113.5 21.3187 114.061 21.3187C114.615 21.3187 115.094 21.1979 115.5 20.9561C115.905 20.7066 116.217 20.3402 116.435 19.8567C116.662 19.3733 116.775 18.7807 116.775 18.0789V8.7807Z" fill="#FAFAFA"/>
<path d="M122.675 8.7807H128.967C129.864 8.7807 130.663 8.96784 131.365 9.34211C132.066 9.71637 132.62 10.2583 133.025 10.9678C133.439 11.6696 133.645 12.5078 133.645 13.4825C133.645 14.4571 133.47 15.2563 133.119 15.8801C132.776 16.4961 132.363 16.96 131.879 17.2719C131.396 17.576 130.947 17.7593 130.534 17.8216L134.289 24.2193H130.359L127.014 18.0906H126.172V24.2193H122.675V8.7807ZM126.172 15.6696H127.715C128.339 15.6696 128.885 15.5175 129.353 15.2135C129.821 14.9094 130.055 14.3713 130.055 13.5994C130.055 12.8275 129.825 12.2934 129.365 11.9971C128.905 11.693 128.363 11.5409 127.739 11.5409H126.172V15.6696Z" fill="#FAFAFA"/>
<path d="M138.839 18.6637L133.517 8.7807H137.763L140.582 14.6637L143.412 8.7807H147.634L142.336 18.6637V24.2193H138.839V18.6637Z" fill="#FAFAFA"/>
<path d="M155.266 8.7807H158.763V24.2193H155.266V8.7807Z" fill="#FAFAFA"/>
<path d="M164.704 11.9854L164.962 12.0322V24.2193H161.465V8.7807H166.236L172.494 20.9444L172.236 20.9912V8.7807H175.734V24.2193H170.938L164.704 11.9854Z" fill="#FAFAFA"/>
<path d="M186.544 21.038C187.262 21.038 187.913 20.9327 188.497 20.7222C189.09 20.5117 189.531 20.3051 189.819 20.1023L191.316 23.0731C190.95 23.385 190.322 23.7008 189.433 24.0205C188.552 24.3402 187.503 24.5 186.287 24.5C185.148 24.5 184.08 24.3012 183.082 23.9035C182.084 23.5058 181.203 22.9483 180.439 22.231C179.683 21.5058 179.086 20.6598 178.649 19.693C178.221 18.7183 178.006 17.6618 178.006 16.5234C178.006 15.385 178.221 14.3285 178.649 13.3538C179.078 12.3713 179.671 11.5175 180.427 10.7924C181.191 10.0673 182.072 9.50585 183.071 9.10819C184.076 8.70273 185.148 8.5 186.287 8.5C187.503 8.5 188.552 8.65984 189.433 8.97953C190.322 9.29922 190.95 9.61501 191.316 9.9269L189.819 12.8977C189.531 12.6871 189.09 12.4805 188.497 12.2778C187.913 12.0673 187.262 11.962 186.544 11.962C185.749 11.962 185.055 12.0867 184.462 12.3363C183.87 12.578 183.375 12.9133 182.977 13.3421C182.579 13.771 182.283 14.2544 182.088 14.7924C181.893 15.3304 181.796 15.8957 181.796 16.4883C181.796 17.0887 181.893 17.6618 182.088 18.2076C182.283 18.7456 182.579 19.229 182.977 19.6579C183.375 20.0867 183.87 20.4259 184.462 20.6754C185.055 20.9172 185.749 21.038 186.544 21.038Z" fill="#FAFAFA"/>
<path d="M205.262 8.5C206.221 8.5 207.059 8.60526 207.776 8.81579C208.494 9.02632 209.071 9.24854 209.507 9.48246C209.944 9.71637 210.209 9.87232 210.303 9.95029L208.619 12.769C208.494 12.6754 208.279 12.539 207.975 12.3596C207.679 12.1803 207.324 12.0205 206.911 11.8801C206.506 11.7398 206.081 11.6696 205.636 11.6696C205.036 11.6696 204.548 11.7788 204.174 11.9971C203.808 12.2076 203.624 12.5234 203.624 12.9444C203.624 13.2329 203.722 13.4942 203.917 13.7281C204.12 13.9542 204.424 14.1725 204.829 14.383C205.242 14.5858 205.765 14.808 206.396 15.0497C206.973 15.2602 207.515 15.5097 208.022 15.7982C208.529 16.0867 208.973 16.4298 209.355 16.8275C209.745 17.2173 210.053 17.6696 210.279 18.1842C210.506 18.6988 210.619 19.2836 210.619 19.9386C210.619 20.7183 210.459 21.3967 210.139 21.9737C209.819 22.5429 209.383 23.0146 208.829 23.3889C208.283 23.7632 207.66 24.04 206.958 24.2193C206.264 24.4064 205.543 24.5 204.794 24.5C203.734 24.5 202.782 24.3791 201.94 24.1374C201.106 23.8957 200.431 23.6345 199.917 23.3538C199.402 23.0731 199.094 22.886 198.993 22.7924L200.736 19.8567C200.829 19.9269 201.008 20.04 201.274 20.1959C201.546 20.3519 201.878 20.5156 202.268 20.6871C202.658 20.8509 203.071 20.9912 203.507 21.1082C203.952 21.2251 204.389 21.2836 204.817 21.2836C205.535 21.2836 206.073 21.1472 206.431 20.8743C206.79 20.5936 206.969 20.2271 206.969 19.7749C206.969 19.4396 206.856 19.1394 206.63 18.8743C206.404 18.6092 206.065 18.3597 205.613 18.1257C205.16 17.884 204.595 17.6306 203.917 17.3655C203.238 17.0926 202.603 16.7612 202.01 16.3713C201.426 15.9815 200.95 15.4942 200.583 14.9094C200.217 14.3246 200.034 13.5994 200.034 12.7339C200.034 11.8684 200.275 11.1199 200.759 10.4883C201.25 9.84893 201.893 9.3577 202.689 9.01462C203.492 8.67154 204.35 8.5 205.262 8.5Z" fill="#FAFAFA"/>
<path d="M217.731 8.7807H221.205L227.299 24.2193H223.568L222.445 21.1199H216.503L215.369 24.2193H211.626L217.731 8.7807ZM217.673 18.0556H221.287L219.497 12.9912H219.462L217.673 18.0556Z" fill="#FAFAFA"/>
<path d="M234.159 8.5C235.118 8.5 235.956 8.60526 236.674 8.81579C237.391 9.02632 237.968 9.24854 238.405 9.48246C238.841 9.71637 239.106 9.87232 239.2 9.95029L237.516 12.769C237.391 12.6754 237.177 12.539 236.872 12.3596C236.576 12.1803 236.221 12.0205 235.808 11.8801C235.403 11.7398 234.978 11.6696 234.533 11.6696C233.933 11.6696 233.446 11.7788 233.071 11.9971C232.705 12.2076 232.522 12.5234 232.522 12.9444C232.522 13.2329 232.619 13.4942 232.814 13.7281C233.017 13.9542 233.321 14.1725 233.726 14.383C234.139 14.5858 234.662 14.808 235.293 15.0497C235.87 15.2602 236.412 15.5097 236.919 15.7982C237.426 16.0867 237.87 16.4298 238.253 16.8275C238.642 17.2173 238.95 17.6696 239.177 18.1842C239.403 18.6988 239.516 19.2836 239.516 19.9386C239.516 20.7183 239.356 21.3967 239.036 21.9737C238.716 22.5429 238.28 23.0146 237.726 23.3889C237.18 23.7632 236.557 24.04 235.855 24.2193C235.161 24.4064 234.44 24.5 233.691 24.5C232.631 24.5 231.679 24.3791 230.837 24.1374C230.003 23.8957 229.329 23.6345 228.814 23.3538C228.299 23.0731 227.991 22.886 227.89 22.7924L229.633 19.8567C229.726 19.9269 229.906 20.04 230.171 20.1959C230.444 20.3519 230.775 20.5156 231.165 20.6871C231.555 20.8509 231.968 20.9912 232.405 21.1082C232.849 21.2251 233.286 21.2836 233.715 21.2836C234.432 21.2836 234.97 21.1472 235.329 20.8743C235.687 20.5936 235.867 20.2271 235.867 19.7749C235.867 19.4396 235.754 19.1394 235.527 18.8743C235.301 18.6092 234.962 18.3597 234.51 18.1257C234.058 17.884 233.492 17.6306 232.814 17.3655C232.136 17.0926 231.5 16.7612 230.908 16.3713C230.323 15.9815 229.847 15.4942 229.481 14.9094C229.114 14.3246 228.931 13.5994 228.931 12.7339C228.931 11.8684 229.173 11.1199 229.656 10.4883C230.147 9.84893 230.791 9.3577 231.586 9.01462C232.389 8.67154 233.247 8.5 234.159 8.5Z" fill="#FAFAFA"/>
</svg>
